<svg width="1920" height="80" viewBox="0 0 1920 80" fill="none" xmlns="http://www.w3.org/2000/svg">
<rect width="1920" height="80" fill="#0F0F0F"/>
<path d="M406.477 52V27.3906H410.414V52H406.477ZM412.207 40.8906V37.0586H414.562C416.273 37.0586 417.199 36.2266 417.34 34.5625C417.34 34.4219 417.34 34.2812 417.34 34.1406C417.176 32.2891 416.25 31.3164 414.562 31.2227H412.207V27.3906H414.879C419.145 27.4609 421.289 29.6875 421.312 34.0703C421.312 37.4688 420.234 39.5898 418.078 40.4336C417.188 40.7383 416.121 40.8906 414.879 40.8906C414.832 40.8906 413.941 40.8906 412.207 40.8906ZM423.246 45.1445V33.5781C423.246 32.3359 423.773 31.0703 424.828 29.7812C426.234 28.0938 428.016 27.2383 430.172 27.2148V31.1172C428.953 31.1406 428.039 31.7969 427.43 33.0859C427.242 33.5078 427.148 33.8594 427.148 34.1406V45.1445C427.148 46.4102 427.805 47.3477 429.117 47.957C429.516 48.1445 429.855 48.2383 430.137 48.2383V52.1758C428.801 52.1758 427.465 51.6953 426.129 50.7344C424.23 49.3281 423.27 47.4648 423.246 45.1445ZM432.07 52.1758V48.2383C432.68 48.2383 433.312 47.957 433.969 47.3945C434.672 46.7617 435.035 46.0117 435.059 45.1445V34.1406C435.059 33.4375 434.754 32.7578 434.145 32.1016C433.559 31.4688 432.867 31.1406 432.07 31.1172V27.2148C434.438 27.2148 436.336 28.2344 437.766 30.2734C438.586 31.4453 438.996 32.5469 438.996 33.5781V45.1445C438.996 47.7461 437.836 49.7383 435.516 51.1211C434.297 51.8242 433.148 52.1758 432.07 52.1758ZM441.809 52V27.3906H445.746V52H441.809ZM447.539 41.6289V38.1133H449.508C451.547 38.1133 452.672 37.1406 452.883 35.1953C452.906 34.9844 452.918 34.7852 452.918 34.5977C452.918 32.6289 452.027 31.4688 450.246 31.1172C449.918 31.0703 449.578 31.0469 449.227 31.0469H447.539V27.3906H449.684C452.801 27.4609 454.898 28.6211 455.977 30.8711C456.422 31.8086 456.645 32.8867 456.645 34.1055C456.621 36.707 455.824 38.5938 454.254 39.7656C455.473 40.4688 456.246 41.7227 456.574 43.5273C456.621 43.832 456.656 44.1133 456.68 44.3711L457.277 52H453.621L453.094 45.7422C452.906 43.7734 452.379 42.5312 451.512 42.0156C450.996 41.7578 450.352 41.6289 449.578 41.6289H447.539ZM458.684 31.2227V27.3906H473.906V31.2227H468.281V52H464.344V31.2227H458.684ZM475.945 52V27.3906H488.742V31.2578H479.883V37.7969H485.438V41.7344H479.883V48.0977H488.742V52H475.945ZM491.59 52V33.6484H491.871L495.527 39.5195V52H491.59ZM491.59 29.9219V27.3906H494.859L507.234 47.2539V52H505.336L491.59 29.9219ZM503.297 37.6562V27.3906H507.234V43.5273H506.953L503.297 37.6562Z" fill="white"/>
<rect x="978" width="136" height="80" fill="#1F1F1F"/>
<path d="M1004.87 36.236H1000.35V45H999.19V35.2H1006.04V45H1004.87V36.236ZM1008.01 40.1C1008.01 38.4667 1008.36 37.216 1009.05 36.348C1009.74 35.4707 1010.72 35.032 1012 35.032C1012.69 35.032 1013.29 35.1533 1013.79 35.396C1014.3 35.6387 1014.71 35.984 1015.04 36.432C1015.38 36.8707 1015.62 37.4027 1015.78 38.028C1015.94 38.644 1016.02 39.3347 1016.02 40.1C1016.02 41.7333 1015.67 42.9887 1014.97 43.866C1014.28 44.734 1013.29 45.168 1012 45.168C1011.32 45.168 1010.73 45.0467 1010.22 44.804C1009.73 44.5613 1009.31 44.2207 1008.98 43.782C1008.65 43.334 1008.41 42.802 1008.25 42.186C1008.09 41.5607 1008.01 40.8653 1008.01 40.1ZM1009.24 40.1C1009.24 40.6413 1009.3 41.1547 1009.4 41.64C1009.51 42.1253 1009.68 42.5547 1009.9 42.928C1010.13 43.292 1010.41 43.586 1010.76 43.81C1011.11 44.0247 1011.53 44.132 1012 44.132C1012.87 44.132 1013.55 43.8053 1014.05 43.152C1014.54 42.4893 1014.79 41.472 1014.79 40.1C1014.79 39.568 1014.73 39.0593 1014.62 38.574C1014.52 38.0793 1014.35 37.65 1014.12 37.286C1013.89 36.9127 1013.6 36.6187 1013.25 36.404C1012.9 36.18 1012.49 36.068 1012 36.068C1011.14 36.068 1010.47 36.3993 1009.97 37.062C1009.49 37.7153 1009.24 38.728 1009.24 40.1ZM1023.85 40.506H1019.15V45H1017.99V35.2H1019.15V39.47H1023.85V35.2H1025.02V45H1023.85V40.506ZM1027.4 35.298C1027.75 35.214 1028.13 35.158 1028.54 35.13C1028.95 35.102 1029.36 35.088 1029.76 35.088C1030.19 35.088 1030.62 35.13 1031.06 35.214C1031.51 35.298 1031.92 35.452 1032.28 35.676C1032.65 35.9 1032.94 36.208 1033.16 36.6C1033.4 36.992 1033.51 37.4913 1033.51 38.098C1033.51 38.6953 1033.41 39.1993 1033.19 39.61C1032.98 40.0207 1032.69 40.3567 1032.34 40.618C1031.98 40.87 1031.58 41.052 1031.12 41.164C1030.66 41.276 1030.19 41.332 1029.71 41.332C1029.66 41.332 1029.58 41.332 1029.47 41.332C1029.36 41.332 1029.25 41.332 1029.13 41.332C1029.02 41.3227 1028.91 41.3133 1028.8 41.304C1028.68 41.2947 1028.6 41.2853 1028.56 41.276V45H1027.4V35.298ZM1029.79 36.096C1029.55 36.096 1029.31 36.1007 1029.09 36.11C1028.87 36.1193 1028.69 36.1427 1028.56 36.18V40.24C1028.6 40.2587 1028.68 40.2727 1028.78 40.282C1028.88 40.282 1028.99 40.2867 1029.1 40.296C1029.22 40.296 1029.32 40.296 1029.43 40.296C1029.53 40.296 1029.6 40.296 1029.65 40.296C1029.97 40.296 1030.28 40.268 1030.59 40.212C1030.9 40.1467 1031.19 40.0347 1031.44 39.876C1031.69 39.7173 1031.89 39.4933 1032.04 39.204C1032.2 38.9147 1032.28 38.546 1032.28 38.098C1032.28 37.7153 1032.21 37.398 1032.06 37.146C1031.92 36.8847 1031.73 36.6793 1031.48 36.53C1031.25 36.3713 1030.98 36.2593 1030.69 36.194C1030.39 36.1287 1030.09 36.096 1029.79 36.096ZM1038.99 42.284H1035.38L1034.4 45H1033.25L1036.96 35.046H1037.49L1041.21 45H1040L1038.99 42.284ZM1035.75 41.276H1038.64L1037.55 38.294L1037.2 36.81H1037.18L1036.83 38.322L1035.75 41.276ZM1048.42 37.44C1048.42 37.6733 1048.39 37.9113 1048.31 38.154C1048.24 38.3967 1048.13 38.6253 1047.98 38.84C1047.83 39.0453 1047.64 39.2273 1047.4 39.386C1047.17 39.5447 1046.89 39.666 1046.58 39.75V39.806C1046.86 39.8527 1047.12 39.932 1047.37 40.044C1047.64 40.156 1047.86 40.31 1048.06 40.506C1048.26 40.702 1048.41 40.94 1048.54 41.22C1048.66 41.5 1048.72 41.8313 1048.72 42.214C1048.72 42.718 1048.61 43.1567 1048.4 43.53C1048.19 43.894 1047.92 44.1927 1047.57 44.426C1047.23 44.6593 1046.85 44.832 1046.41 44.944C1045.97 45.056 1045.52 45.112 1045.06 45.112C1044.91 45.112 1044.72 45.112 1044.5 45.112C1044.29 45.112 1044.07 45.1027 1043.83 45.084C1043.6 45.0747 1043.37 45.056 1043.13 45.028C1042.9 45.0093 1042.69 44.9767 1042.52 44.93V35.284C1042.86 35.228 1043.26 35.1813 1043.72 35.144C1044.18 35.1067 1044.68 35.088 1045.22 35.088C1045.58 35.088 1045.95 35.1207 1046.32 35.186C1046.71 35.242 1047.05 35.3587 1047.36 35.536C1047.67 35.704 1047.92 35.942 1048.12 36.25C1048.32 36.558 1048.42 36.9547 1048.42 37.44ZM1045.18 44.104C1045.47 44.104 1045.76 44.0713 1046.04 44.006C1046.32 43.9313 1046.57 43.8193 1046.79 43.67C1047 43.5113 1047.17 43.32 1047.29 43.096C1047.42 42.872 1047.49 42.606 1047.49 42.298C1047.49 41.9153 1047.41 41.6073 1047.25 41.374C1047.1 41.1407 1046.9 40.9587 1046.65 40.828C1046.4 40.6973 1046.13 40.6087 1045.82 40.562C1045.51 40.5153 1045.2 40.492 1044.9 40.492H1043.68V44.006C1043.74 44.0247 1043.84 44.0387 1043.96 44.048C1044.08 44.0573 1044.21 44.0667 1044.35 44.076C1044.49 44.0853 1044.63 44.0947 1044.78 44.104C1044.93 44.104 1045.06 44.104 1045.18 44.104ZM1044.41 39.512C1044.56 39.512 1044.76 39.5073 1044.98 39.498C1045.2 39.4887 1045.39 39.4747 1045.54 39.456C1045.76 39.3813 1045.97 39.2927 1046.17 39.19C1046.37 39.078 1046.54 38.952 1046.69 38.812C1046.85 38.6627 1046.97 38.4947 1047.05 38.308C1047.15 38.112 1047.19 37.902 1047.19 37.678C1047.19 37.37 1047.13 37.118 1047.01 36.922C1046.9 36.7167 1046.74 36.5533 1046.55 36.432C1046.35 36.3107 1046.13 36.2267 1045.88 36.18C1045.62 36.124 1045.37 36.096 1045.11 36.096C1044.8 36.096 1044.51 36.1053 1044.25 36.124C1044 36.1333 1043.81 36.152 1043.68 36.18V39.512H1044.41ZM1056.68 38.364L1056.77 37.244H1056.71L1056.11 38.392L1051.38 45H1050.69V35.2H1051.85V41.92L1051.76 43.026H1051.81L1052.43 41.878L1057.16 35.2H1057.85V45H1056.68V38.364ZM1065.42 36.236H1062.49C1062.4 38.1027 1062.27 39.6567 1062.11 40.898C1061.96 42.13 1061.73 43.0913 1061.43 43.782C1061.22 44.23 1060.98 44.5567 1060.7 44.762C1060.42 44.9673 1060.11 45.07 1059.79 45.07C1059.62 45.07 1059.47 45.056 1059.35 45.028C1059.23 45.0093 1059.12 44.9767 1059 44.93L1059.16 43.922C1059.25 43.95 1059.35 43.964 1059.45 43.964C1059.61 43.964 1059.76 43.9127 1059.91 43.81C1060.07 43.7073 1060.23 43.516 1060.38 43.236C1060.51 42.984 1060.63 42.648 1060.74 42.228C1060.86 41.808 1060.96 41.276 1061.05 40.632C1061.14 39.988 1061.22 39.2227 1061.27 38.336C1061.33 37.44 1061.37 36.3947 1061.4 35.2H1066.58V45H1065.42V36.236ZM1068.55 40.1C1068.55 38.4667 1068.9 37.216 1069.59 36.348C1070.28 35.4707 1071.26 35.032 1072.54 35.032C1073.23 35.032 1073.83 35.1533 1074.33 35.396C1074.84 35.6387 1075.25 35.984 1075.58 36.432C1075.92 36.8707 1076.16 37.4027 1076.32 38.028C1076.48 38.644 1076.56 39.3347 1076.56 40.1C1076.56 41.7333 1076.21 42.9887 1075.51 43.866C1074.82 44.734 1073.83 45.168 1072.54 45.168C1071.86 45.168 1071.27 45.0467 1070.76 44.804C1070.27 44.5613 1069.85 44.2207 1069.52 43.782C1069.19 43.334 1068.95 42.802 1068.79 42.186C1068.63 41.5607 1068.55 40.8653 1068.55 40.1ZM1069.78 40.1C1069.78 40.6413 1069.83 41.1547 1069.94 41.64C1070.05 42.1253 1070.22 42.5547 1070.44 42.928C1070.67 43.292 1070.95 43.586 1071.3 43.81C1071.65 44.0247 1072.07 44.132 1072.54 44.132C1073.41 44.132 1074.09 43.8053 1074.59 43.152C1075.08 42.4893 1075.33 41.472 1075.33 40.1C1075.33 39.568 1075.27 39.0593 1075.16 38.574C1075.06 38.0793 1074.89 37.65 1074.66 37.286C1074.43 36.9127 1074.14 36.6187 1073.79 36.404C1073.44 36.18 1073.03 36.068 1072.54 36.068C1071.68 36.068 1071.01 36.3993 1070.51 37.062C1070.03 37.7153 1069.78 38.728 1069.78 40.1ZM1084.8 44.594C1084.52 44.8087 1084.17 44.958 1083.74 45.042C1083.31 45.126 1082.85 45.168 1082.36 45.168C1081.78 45.168 1081.23 45.07 1080.71 44.874C1080.2 44.6687 1079.75 44.3607 1079.37 43.95C1078.99 43.5393 1078.68 43.0167 1078.46 42.382C1078.23 41.738 1078.12 40.9773 1078.12 40.1C1078.12 39.1853 1078.24 38.4107 1078.49 37.776C1078.74 37.132 1079.06 36.6093 1079.47 36.208C1079.88 35.7973 1080.33 35.4987 1080.84 35.312C1081.34 35.1253 1081.86 35.032 1082.38 35.032C1082.94 35.032 1083.4 35.0647 1083.75 35.13C1084.1 35.186 1084.41 35.2653 1084.66 35.368L1084.38 36.39C1083.93 36.1753 1083.29 36.068 1082.46 36.068C1082.08 36.068 1081.7 36.138 1081.33 36.278C1080.95 36.418 1080.62 36.6467 1080.32 36.964C1080.03 37.2813 1079.8 37.6967 1079.62 38.21C1079.44 38.7233 1079.35 39.3533 1079.35 40.1C1079.35 40.772 1079.44 41.36 1079.61 41.864C1079.77 42.368 1080 42.788 1080.29 43.124C1080.59 43.46 1080.94 43.712 1081.33 43.88C1081.73 44.048 1082.16 44.132 1082.63 44.132C1083.05 44.132 1083.41 44.09 1083.72 44.006C1084.04 43.922 1084.31 43.8147 1084.52 43.684L1084.8 44.594ZM1086.53 35.2H1087.69V39.008C1087.73 38.9987 1087.81 38.9893 1087.93 38.98C1088.04 38.9613 1088.16 38.9473 1088.29 38.938C1088.42 38.9287 1088.56 38.9193 1088.7 38.91C1088.84 38.9007 1088.96 38.896 1089.07 38.896C1089.52 38.896 1089.96 38.9427 1090.38 39.036C1090.81 39.12 1091.18 39.274 1091.51 39.498C1091.85 39.722 1092.12 40.0253 1092.32 40.408C1092.53 40.7813 1092.63 41.2573 1092.63 41.836C1092.63 42.396 1092.53 42.8813 1092.34 43.292C1092.14 43.7027 1091.87 44.0433 1091.52 44.314C1091.18 44.5847 1090.77 44.7853 1090.31 44.916C1089.85 45.0467 1089.35 45.112 1088.81 45.112C1088.68 45.112 1088.52 45.1073 1088.33 45.098C1088.15 45.098 1087.94 45.0887 1087.73 45.07C1087.52 45.0607 1087.31 45.042 1087.1 45.014C1086.89 44.986 1086.7 44.9487 1086.53 44.902V35.2ZM1088.96 44.104C1089.3 44.104 1089.61 44.062 1089.9 43.978C1090.2 43.8847 1090.46 43.7493 1090.68 43.572C1090.91 43.3853 1091.08 43.1567 1091.2 42.886C1091.33 42.606 1091.4 42.284 1091.4 41.92C1091.4 41.528 1091.33 41.2013 1091.19 40.94C1091.05 40.6787 1090.86 40.4733 1090.63 40.324C1090.4 40.1653 1090.14 40.058 1089.84 40.002C1089.55 39.9367 1089.24 39.904 1088.92 39.904C1088.84 39.904 1088.73 39.9087 1088.61 39.918C1088.49 39.9273 1088.37 39.9367 1088.25 39.946C1088.13 39.9553 1088.01 39.9693 1087.91 39.988C1087.81 40.0067 1087.73 40.0207 1087.69 40.03V44.02C1087.82 44.048 1088.01 44.0713 1088.25 44.09C1088.49 44.0993 1088.73 44.104 1088.96 44.104Z" fill="white"/>
<path d="M1140.38 36.236H1137.46C1137.36 38.1027 1137.24 39.6567 1137.08 40.898C1136.93 42.13 1136.7 43.0913 1136.39 43.782C1136.19 44.23 1135.95 44.5567 1135.67 44.762C1135.39 44.9673 1135.08 45.07 1134.76 45.07C1134.59 45.07 1134.44 45.056 1134.32 45.028C1134.2 45.0093 1134.08 44.9767 1133.97 44.93L1134.13 43.922C1134.22 43.95 1134.32 43.964 1134.42 43.964C1134.58 43.964 1134.73 43.9127 1134.88 43.81C1135.04 43.7073 1135.19 43.516 1135.34 43.236C1135.47 42.984 1135.6 42.648 1135.71 42.228C1135.83 41.808 1135.93 41.276 1136.02 40.632C1136.11 39.988 1136.18 39.2227 1136.24 38.336C1136.3 37.44 1136.34 36.3947 1136.37 35.2H1141.55V45H1140.38V36.236ZM1149.92 38.364L1150 37.244H1149.95L1149.34 38.392L1144.61 45H1143.93V35.2H1145.09V41.92L1144.99 43.026H1145.05L1145.66 41.878L1150.39 35.2H1151.08V45H1149.92V38.364ZM1154.48 35.2V38.448C1154.48 39.7267 1155.06 40.366 1156.21 40.366C1156.65 40.366 1157.06 40.31 1157.45 40.198C1157.83 40.0767 1158.14 39.918 1158.38 39.722V35.2H1159.55V45H1158.38V40.772C1158.13 40.912 1157.8 41.052 1157.39 41.192C1156.98 41.332 1156.51 41.402 1155.98 41.402C1155.58 41.402 1155.22 41.36 1154.9 41.276C1154.57 41.1827 1154.29 41.0333 1154.06 40.828C1153.82 40.6133 1153.64 40.3287 1153.51 39.974C1153.38 39.6193 1153.32 39.1807 1153.32 38.658V35.2H1154.48ZM1167.8 40.506H1163.09V45H1161.93V35.2H1163.09V39.47H1167.8V35.2H1168.96V45H1167.8V40.506ZM1178.56 35.2H1179.72V45H1178.56V35.2ZM1171.34 35.2H1172.5V39.008C1172.55 38.9987 1172.62 38.9893 1172.71 38.98C1172.8 38.9613 1172.91 38.9473 1173.02 38.938C1173.13 38.9287 1173.24 38.9193 1173.35 38.91C1173.48 38.9007 1173.59 38.896 1173.7 38.896C1174.14 38.896 1174.57 38.9427 1174.98 39.036C1175.4 39.12 1175.77 39.274 1176.08 39.498C1176.4 39.722 1176.65 40.0253 1176.84 40.408C1177.04 40.7813 1177.13 41.2573 1177.13 41.836C1177.13 42.396 1177.05 42.886 1176.87 43.306C1176.69 43.7167 1176.44 44.0573 1176.11 44.328C1175.8 44.5893 1175.41 44.7853 1174.96 44.916C1174.52 45.0467 1174.02 45.112 1173.48 45.112C1173.35 45.112 1173.2 45.1073 1173.02 45.098C1172.85 45.098 1172.67 45.0887 1172.47 45.07C1172.29 45.0607 1172.09 45.042 1171.9 45.014C1171.7 44.986 1171.52 44.9487 1171.34 44.902V35.2ZM1173.58 44.104C1174.25 44.104 1174.81 43.922 1175.24 43.558C1175.68 43.194 1175.9 42.648 1175.9 41.92C1175.9 41.528 1175.84 41.2013 1175.71 40.94C1175.58 40.6787 1175.4 40.4733 1175.17 40.324C1174.96 40.1653 1174.71 40.058 1174.42 40.002C1174.14 39.9367 1173.84 39.904 1173.52 39.904C1173.35 39.904 1173.17 39.918 1172.96 39.946C1172.76 39.974 1172.6 40.002 1172.5 40.03V44.02C1172.75 44.076 1173.11 44.104 1173.58 44.104ZM1188.09 38.364L1188.17 37.244H1188.12L1187.52 38.392L1182.78 45H1182.1V35.2H1183.26V41.92L1183.16 43.026H1183.22L1183.83 41.878L1188.57 35.2H1189.25V45H1188.09V38.364ZM1184.52 32.82C1184.56 33.1653 1184.69 33.4313 1184.91 33.618C1185.14 33.8047 1185.43 33.898 1185.81 33.898C1186.18 33.898 1186.48 33.8047 1186.69 33.618C1186.91 33.4313 1187.05 33.17 1187.1 32.834L1188.09 33.072C1187.99 33.576 1187.75 33.9773 1187.38 34.276C1187.01 34.5653 1186.48 34.71 1185.79 34.71C1185.13 34.71 1184.59 34.584 1184.16 34.332C1183.74 34.0707 1183.49 33.66 1183.41 33.1L1184.52 32.82ZM1197.18 40.464H1196.52V45H1195.36V35.2H1196.52V39.764L1197.15 39.568L1200.44 35.2H1201.79L1198.51 39.414L1197.92 39.876L1198.64 40.436L1202.22 45H1200.75L1197.18 40.464ZM1208.57 42.284H1204.95L1203.97 45H1202.83L1206.54 35.046H1207.07L1210.79 45H1209.57L1208.57 42.284ZM1205.33 41.276H1208.22L1207.12 38.294L1206.77 36.81H1206.76L1206.41 38.322L1205.33 41.276ZM1212.09 35.2H1217.41V36.236H1213.26V39.176C1213.41 39.148 1213.61 39.12 1213.84 39.092C1214.08 39.064 1214.3 39.05 1214.52 39.05C1214.99 39.05 1215.44 39.0967 1215.87 39.19C1216.3 39.274 1216.68 39.4233 1217.01 39.638C1217.33 39.8527 1217.59 40.1467 1217.78 40.52C1217.97 40.884 1218.07 41.346 1218.07 41.906C1218.07 42.466 1217.97 42.9513 1217.78 43.362C1217.58 43.7633 1217.32 44.0947 1216.99 44.356C1216.67 44.608 1216.28 44.7993 1215.85 44.93C1215.42 45.0513 1214.96 45.112 1214.49 45.112C1214.33 45.112 1214.15 45.1073 1213.94 45.098C1213.75 45.098 1213.54 45.0887 1213.31 45.07C1213.1 45.0513 1212.88 45.028 1212.67 45C1212.46 44.9813 1212.27 44.9487 1212.09 44.902V35.2ZM1214.63 44.104C1214.93 44.104 1215.21 44.062 1215.48 43.978C1215.75 43.894 1215.99 43.7727 1216.18 43.614C1216.39 43.446 1216.55 43.236 1216.66 42.984C1216.78 42.732 1216.84 42.438 1216.84 42.102C1216.84 41.6727 1216.77 41.3273 1216.63 41.066C1216.5 40.7953 1216.32 40.5853 1216.1 40.436C1215.87 40.2867 1215.61 40.1887 1215.31 40.142C1215.02 40.086 1214.72 40.058 1214.4 40.058C1214.32 40.058 1214.22 40.0627 1214.11 40.072C1214 40.0813 1213.89 40.0907 1213.77 40.1C1213.66 40.1093 1213.56 40.1233 1213.47 40.142C1213.37 40.1513 1213.3 40.1607 1213.26 40.17V44.02C1213.32 44.0387 1213.41 44.0527 1213.51 44.062C1213.62 44.0713 1213.74 44.0807 1213.86 44.09C1213.99 44.0993 1214.12 44.104 1214.25 44.104C1214.38 44.104 1214.51 44.104 1214.63 44.104ZM1225.78 38.364L1225.87 37.244H1225.81L1225.21 38.392L1220.48 45H1219.79V35.2H1220.95V41.92L1220.86 43.026H1220.91L1221.53 41.878L1226.26 35.2H1226.95V45H1225.78V38.364ZM1235.19 40.506H1230.48V45H1229.32V35.2H1230.48V39.47H1235.19V35.2H1236.35V45H1235.19V40.506ZM1238.73 35.2H1244.06V36.236H1239.89V39.442H1243.71V40.478H1239.89V43.964H1244.13V45H1238.73V35.2ZM1252.56 36.236H1249.51V45H1248.35V36.236H1245.29V35.2H1252.56V36.236Z" fill="#969696"/>
<path d="M1300.06 40.506H1295.35V45H1294.19V35.2H1295.35V39.47H1300.06V35.2H1301.22V45H1300.06V40.506ZM1308.26 42.284H1304.65L1303.67 45H1302.52L1306.23 35.046H1306.76L1310.48 45H1309.27L1308.26 42.284ZM1305.02 41.276H1307.91L1306.82 38.294L1306.47 36.81H1306.45L1306.1 38.322L1305.02 41.276ZM1317.7 44.594C1317.42 44.8087 1317.07 44.958 1316.64 45.042C1316.21 45.126 1315.75 45.168 1315.27 45.168C1314.68 45.168 1314.13 45.07 1313.61 44.874C1313.1 44.6687 1312.65 44.3607 1312.27 43.95C1311.89 43.5393 1311.58 43.0167 1311.36 42.382C1311.14 41.738 1311.02 40.9773 1311.02 40.1C1311.02 39.1853 1311.15 38.4107 1311.39 37.776C1311.64 37.132 1311.97 36.6093 1312.37 36.208C1312.78 35.7973 1313.24 35.4987 1313.74 35.312C1314.24 35.1253 1314.76 35.032 1315.28 35.032C1315.84 35.032 1316.3 35.0647 1316.65 35.13C1317.01 35.186 1317.31 35.2653 1317.56 35.368L1317.28 36.39C1316.83 36.1753 1316.19 36.068 1315.36 36.068C1314.98 36.068 1314.6 36.138 1314.23 36.278C1313.86 36.418 1313.52 36.6467 1313.22 36.964C1312.93 37.2813 1312.7 37.6967 1312.52 38.21C1312.34 38.7233 1312.26 39.3533 1312.26 40.1C1312.26 40.772 1312.34 41.36 1312.51 41.864C1312.68 42.368 1312.9 42.788 1313.19 43.124C1313.49 43.46 1313.84 43.712 1314.23 43.88C1314.63 44.048 1315.07 44.132 1315.53 44.132C1315.95 44.132 1316.32 44.09 1316.62 44.006C1316.94 43.922 1317.21 43.8147 1317.42 43.684L1317.7 44.594ZM1325.59 36.236H1322.54V45H1321.38V36.236H1318.33V35.2H1325.59V36.236ZM1327.03 35.298C1327.38 35.214 1327.77 35.158 1328.18 35.13C1328.59 35.102 1328.99 35.088 1329.4 35.088C1329.83 35.088 1330.26 35.13 1330.7 35.214C1331.15 35.298 1331.55 35.452 1331.92 35.676C1332.28 35.9 1332.57 36.208 1332.8 36.6C1333.03 36.992 1333.15 37.4913 1333.15 38.098C1333.15 38.6953 1333.04 39.1993 1332.83 39.61C1332.61 40.0207 1332.33 40.3567 1331.97 40.618C1331.62 40.87 1331.21 41.052 1330.75 41.164C1330.3 41.276 1329.83 41.332 1329.34 41.332C1329.29 41.332 1329.21 41.332 1329.1 41.332C1329 41.332 1328.89 41.332 1328.77 41.332C1328.65 41.3227 1328.54 41.3133 1328.43 41.304C1328.32 41.2947 1328.24 41.2853 1328.19 41.276V45H1327.03V35.298ZM1329.42 36.096C1329.18 36.096 1328.95 36.1007 1328.72 36.11C1328.5 36.1193 1328.32 36.1427 1328.19 36.18V40.24C1328.24 40.2587 1328.31 40.2727 1328.42 40.282C1328.52 40.282 1328.63 40.2867 1328.74 40.296C1328.85 40.296 1328.96 40.296 1329.06 40.296C1329.16 40.296 1329.24 40.296 1329.28 40.296C1329.6 40.296 1329.91 40.268 1330.22 40.212C1330.54 40.1467 1330.82 40.0347 1331.08 39.876C1331.33 39.7173 1331.53 39.4933 1331.68 39.204C1331.84 38.9147 1331.92 38.546 1331.92 38.098C1331.92 37.7153 1331.84 37.398 1331.69 37.146C1331.55 36.8847 1331.36 36.6793 1331.12 36.53C1330.88 36.3713 1330.62 36.2593 1330.32 36.194C1330.02 36.1287 1329.72 36.096 1329.42 36.096ZM1334.21 40.1C1334.21 38.4667 1334.56 37.216 1335.25 36.348C1335.94 35.4707 1336.92 35.032 1338.2 35.032C1338.89 35.032 1339.49 35.1533 1339.99 35.396C1340.5 35.6387 1340.91 35.984 1341.24 36.432C1341.58 36.8707 1341.82 37.4027 1341.98 38.028C1342.14 38.644 1342.22 39.3347 1342.22 40.1C1342.22 41.7333 1341.87 42.9887 1341.17 43.866C1340.48 44.734 1339.49 45.168 1338.2 45.168C1337.52 45.168 1336.93 45.0467 1336.42 44.804C1335.93 44.5613 1335.51 44.2207 1335.18 43.782C1334.85 43.334 1334.61 42.802 1334.45 42.186C1334.29 41.5607 1334.21 40.8653 1334.21 40.1ZM1335.44 40.1C1335.44 40.6413 1335.5 41.1547 1335.6 41.64C1335.71 42.1253 1335.88 42.5547 1336.1 42.928C1336.33 43.292 1336.61 43.586 1336.96 43.81C1337.31 44.0247 1337.73 44.132 1338.2 44.132C1339.07 44.132 1339.75 43.8053 1340.25 43.152C1340.74 42.4893 1340.99 41.472 1340.99 40.1C1340.99 39.568 1340.93 39.0593 1340.82 38.574C1340.72 38.0793 1340.55 37.65 1340.32 37.286C1340.09 36.9127 1339.8 36.6187 1339.45 36.404C1339.1 36.18 1338.69 36.068 1338.2 36.068C1337.34 36.068 1336.67 36.3993 1336.17 37.062C1335.69 37.7153 1335.44 38.728 1335.44 40.1ZM1350.18 38.364L1350.26 37.244H1350.21L1349.61 38.392L1344.87 45H1344.19V35.2H1345.35V41.92L1345.25 43.026H1345.31L1345.92 41.878L1350.66 35.2H1351.34V45H1350.18V38.364ZM1346.61 32.82C1346.65 33.1653 1346.78 33.4313 1347 33.618C1347.23 33.8047 1347.52 33.898 1347.9 33.898C1348.27 33.898 1348.57 33.8047 1348.78 33.618C1349 33.4313 1349.14 33.17 1349.19 32.834L1350.18 33.072C1350.08 33.576 1349.84 33.9773 1349.47 34.276C1349.1 34.5653 1348.57 34.71 1347.88 34.71C1347.22 34.71 1346.68 34.584 1346.25 34.332C1345.83 34.0707 1345.58 33.66 1345.5 33.1L1346.61 32.82ZM1355.54 40.464H1354.88V45H1353.72V35.2H1354.88V39.764L1355.51 39.568L1358.8 35.2H1360.14L1356.87 39.414L1356.28 39.876L1356.99 40.436L1360.58 45H1359.11L1355.54 40.464ZM1368.25 38.364L1368.34 37.244H1368.28L1367.68 38.392L1362.95 45H1362.26V35.2H1363.42V41.92L1363.33 43.026H1363.38L1364 41.878L1368.73 35.2H1369.42V45H1368.25V38.364Z" fill="#969696"/>
<path d="M1451 35.8118C1450.92 35.6899 1450.81 35.5903 1450.68 35.5215C1450.54 35.4527 1450.4 35.4167 1450.25 35.4167H1437.72L1436.66 32.8775C1436.53 32.5431 1436.29 32.2575 1435.99 32.0567C1435.69 31.856 1435.33 31.7492 1434.97 31.75H1432.83V33.5833H1434.97L1439.32 44.0196C1439.39 44.1866 1439.51 44.3292 1439.66 44.4295C1439.81 44.5298 1439.99 44.5834 1440.17 44.5833H1447.5C1447.88 44.5833 1448.22 44.3459 1448.36 43.9893L1451.11 36.656C1451.16 36.5172 1451.18 36.3679 1451.16 36.2209C1451.14 36.0739 1451.09 35.9335 1451 35.8118ZM1446.86 42.75H1440.78L1438.49 37.25H1448.93L1446.86 42.75Z" fill="white"/>
<path d="M1440.62 48.25C1441.38 48.25 1442 47.6344 1442 46.875C1442 46.1156 1441.38 45.5 1440.62 45.5C1439.87 45.5 1439.25 46.1156 1439.25 46.875C1439.25 47.6344 1439.87 48.25 1440.62 48.25Z" fill="white"/>
<path d="M1447.04 48.25C1447.8 48.25 1448.42 47.6344 1448.42 46.875C1448.42 46.1156 1447.8 45.5 1447.04 45.5C1446.28 45.5 1445.67 46.1156 1445.67 46.875C1445.67 47.6344 1446.28 48.25 1447.04 48.25Z" fill="white"/>
<path d="M1512.25 46.4167L1507.53 41.6922C1508.4 40.3648 1508.75 38.7605 1508.51 37.19C1508.27 35.6194 1507.45 34.1944 1506.22 33.1907C1504.99 32.187 1503.43 31.6761 1501.84 31.7568C1500.25 31.8376 1498.75 32.5043 1497.63 33.6279C1496.5 34.7515 1495.84 36.2521 1495.76 37.839C1495.68 39.426 1496.19 40.9864 1497.19 42.2183C1498.19 43.4502 1499.62 44.2658 1501.19 44.5073C1502.76 44.7488 1504.36 44.399 1505.69 43.5256L1510.42 48.2501L1512.25 46.4167ZM1497.58 38.1667C1497.58 35.6395 1499.64 33.5834 1502.17 33.5834C1504.69 33.5834 1506.75 35.6395 1506.75 38.1667C1506.75 40.694 1504.69 42.7501 1502.17 42.7501C1499.64 42.7501 1497.58 40.694 1497.58 38.1667Z" fill="white"/>
</svg>
